<svg xmlns="http://www.w3.org/2000/svg" viewBox="0 0 64 64"><path fill="none" d="M0 0h64v64H0z"/><path fill="#151515" d="M16 16h2v32h-2zM26 16h2v32h-2zM36 16h2v32h-2zM46 16h2v32h-2z"/><g><path fill="#151515" d="M14 22h6v14h-6z"/><path fill="none" d="M16 20h2v2h-2zM16 36h2v2h-2z" opacity=".5"/></g><g><path fill="#151515" d="M24 26h6v14h-6z"/><path fill="none" d="M26 24h2v2h-2zM26 40h2v2h-2z" opacity=".5"/></g><g><path fill="#151515" d="M34 28h6v14h-6z"/><path fill="none" d="M36 26h2v2h-2zM36 42h2v2h-2z" opacity=".5"/></g><g><path fill="#151515" d="M44 24h6v14h-6z"/><path fill="none" d="M46 22h2v2h-2zM46 38h2v2h-2z" opacity=".5"/></g></svg>
